<svg width="240" height="117" viewBox="0 0 240 117" fill="none" xmlns="http://www.w3.org/2000/svg">
<g clip-path="url(#clip0_1_15)">
<g filter="url(#filter0_dd_1_15)">
<rect x="8" y="8" width="224" height="101" rx="6" fill="#6E11E4"/>
</g>
<path d="M167.708 97.9336C166.016 97.595 164.69 96.8898 163.73 95.8177C162.771 94.6893 162.292 93.3352 162.292 91.7554C162.292 90.6834 162.546 89.555 163.053 88.3701L189.31 26.363C189.987 24.6704 191.284 23.8241 193.203 23.8241C195.008 23.8241 196.278 24.6704 197.011 26.363L217.238 75.0265C217.746 76.2113 218 77.3398 218 78.4118C218 79.9352 217.52 81.2611 216.561 82.3895C215.602 83.5179 214.276 84.2514 212.584 84.5899L205.305 66.9018H181.016L167.708 97.9336ZM202.851 60.0466L191.933 32.3719L191.256 32.6258L192.78 36.5189L183.47 60.0466H202.851Z" fill="white"/>
<path d="M140.632 62.3317L119.558 24.8396C119.953 24.5575 120.546 24.3318 121.336 24.1626C122.182 23.9369 122.972 23.8241 123.705 23.8241C126.583 23.8241 128.642 25.0371 129.883 27.4632L144.356 54.6301L142.578 58.1847L143.171 58.5232L159.251 27.4632C160.549 25.0371 162.636 23.8241 165.514 23.8241C166.247 23.8241 167.009 23.9369 167.799 24.1626C168.645 24.3318 169.266 24.5575 169.661 24.8396L148.587 62.3317V77.9886C148.587 80.1326 147.91 81.7689 146.556 82.8973C145.202 84.0257 143.227 84.5899 140.632 84.5899V62.3317Z" fill="white"/>
<path d="M76.6254 84.5899C74.9328 84.2514 73.6069 83.5461 72.6477 82.4741C71.6885 81.3457 71.209 79.9916 71.209 78.4118C71.209 77.3398 71.4628 76.2113 71.9706 75.0265L92.1977 26.363C92.8748 24.6704 94.1725 23.8241 96.0908 23.8241C97.8963 23.8241 99.1658 24.6704 99.8992 26.363L120.126 75.0265C120.634 76.2113 120.888 77.3398 120.888 78.4118C120.888 79.9352 120.408 81.2611 119.449 82.3895C118.49 83.5179 117.164 84.2514 115.472 84.5899L108.193 66.9018H83.9038L76.6254 84.5899ZM105.739 60.0466L94.8213 32.3719L94.1443 32.6258L95.6676 36.5189L86.3581 60.0466H105.739Z" fill="white"/>
<path d="M22 30.4253C22 28.3378 22.7053 26.7297 24.1158 25.6013C25.5263 24.4165 27.4729 23.824 29.9554 23.824V52.8529L64.0622 19C65.0213 19.7899 65.8112 20.6362 66.4319 21.539C67.0525 22.3853 67.3628 23.147 67.3628 23.824C67.3628 25.2346 66.5165 26.7297 64.8239 28.3095L41.8039 51.7526L67.3628 82.3895C66.7422 83.0666 66.0087 83.6026 65.1624 83.9975C64.3725 84.3925 63.5826 84.5899 62.7927 84.5899C60.5922 84.5899 58.815 83.8 57.4609 82.2202L36.0489 56.8306L29.9554 62.5009V78.2425C29.9554 80.3865 29.3066 81.9945 28.0089 83.0666C26.7112 84.0821 24.7082 84.5899 22 84.5899V30.4253Z" fill="white"/>
<path fill-rule="evenodd" clip-rule="evenodd" d="M22 91H141L137 98H22V91Z" fill="white" fill-opacity="0.65"/>
<path fill-rule="evenodd" clip-rule="evenodd" d="M144 91H151L147 98H140L144 91Z" fill="white" fill-opacity="0.65"/>
<path d="M150 98L154 91H158L154 98H150Z" fill="white" fill-opacity="0.65"/>
</g>
<defs>
<filter id="filter0_dd_1_15" x="0" y="0" width="240" height="117" filterUnits="userSpaceOnUse" color-interpolation-filters="sRGB">
<feFlood flood-opacity="0" result="BackgroundImageFix"/>
<feColorMatrix in="SourceAlpha" type="matrix" values="0 0 0 0 0 0 0 0 0 0 0 0 0 0 0 0 0 0 127 0" result="hardAlpha"/>
<feOffset/>
<feGaussianBlur stdDeviation="4"/>
<feComposite in2="hardAlpha" operator="out"/>
<feColorMatrix type="matrix" values="0 0 0 0 0 0 0 0 0 0 0 0 0 0 0 0 0 0 0.25 0"/>
<feBlend mode="normal" in2="BackgroundImageFix" result="effect1_dropShadow_1_15"/>
<feColorMatrix in="SourceAlpha" type="matrix" values="0 0 0 0 0 0 0 0 0 0 0 0 0 0 0 0 0 0 127 0" result="hardAlpha"/>
<feOffset/>
<feGaussianBlur stdDeviation="2"/>
<feComposite in2="hardAlpha" operator="out"/>
<feColorMatrix type="matrix" values="0 0 0 0 0.429745 0 0 0 0 0.0651693 0 0 0 0 0.89375 0 0 0 0.7 0"/>
<feBlend mode="normal" in2="effect1_dropShadow_1_15" result="effect2_dropShadow_1_15"/>
<feBlend mode="normal" in="SourceGraphic" in2="effect2_dropShadow_1_15" result="shape"/>
</filter>
<clipPath id="clip0_1_15">
<rect width="240" height="117" fill="white"/>
</clipPath>
</defs>
</svg>
