<?xml version="1.0" encoding="utf-8"?>
<!-- Generator: Adobe Illustrator 27.5.0, SVG Export Plug-In . SVG Version: 6.00 Build 0)  -->
<svg version="1.1" xmlns="http://www.w3.org/2000/svg" xmlns:xlink="http://www.w3.org/1999/xlink" x="0px" y="0px"
	 viewBox="0 0 500 500" style="enable-background:new 0 0 500 500;" xml:space="preserve">
<g id="BACKGROUND">
</g>
<g id="OBJECTS">
	<path style="fill:#F2F2F2;" d="M316.651,356.854c5.618,0.075,11.21,0.548,16.532,2.266c14.995,4.842,15.101,19.275,32.377,19.083
		c21.361-0.238,43.341-2.303,64.376,2.229c7.494,1.615,15.602,4.749,18.797,11.717c3.853,8.401-1.576,18.594-9.287,23.69
		c-19.126,12.639-47.282,12.116-69.243,13.611c-18.172,1.237-36.371,1.391-54.57,1.917c-25.179,0.727-49.086-6.066-74.003-6.434
		c-24.247-0.358-47.526,7.691-71.471,10.099c-27.601,2.776-56.48,5.321-83.755-1.13c-9.261-2.19-18.557-5.623-25.43-12.205
		c-10.761-10.305-13.889-28.336-6.358-41.381c9.304-16.117,27.587-17.043,44.178-17.607c70.072-2.382,140.105-4.4,210.203-5.79
		C311.538,356.868,314.097,356.82,316.651,356.854z"/>
	<g>
		<path style="fill:#FAD6CA;" d="M320.236,311.068c0,0,30.465,88.116,34.684,99.833c0,0,3.75,0,7.499-1.406l-28.122-106.864
			C334.297,302.632,325.392,302.632,320.236,311.068z"/>
		<path style="fill:#FAD6CA;" d="M203.061,322.336c0,0-30.465,88.116-34.684,99.833c0,0-3.749,0-7.499-1.406L189,313.9
			C189,313.9,197.905,313.9,203.061,322.336z"/>
		<path style="fill:#FAD6CA;" d="M149.902,275.935c0,0-30.465,88.116-34.684,99.833c0,0-3.75,0-7.499-1.406l28.122-106.864
			C135.841,267.498,144.747,267.498,149.902,275.935z"/>
		<path style="fill:#FAD6CA;" d="M256.961,274.978c0,0,30.465,88.116,34.684,99.833c0,0,3.75,0,7.499-1.406l-28.122-106.864
			C271.022,266.542,262.117,266.542,256.961,274.978z"/>
		<g>
			<path style="fill:#EEA48B;" d="M317.009,134.66c12.048-1.382,24.868-0.867,35.381,5.178
				c13.959,8.027,21.251,24.496,22.738,40.529c1.487,16.034-1.889,32.06-4.481,47.952c-2.687,16.481-4.58,33.242-10.226,48.957
				c-5.647,15.715-15.629,30.624-30.482,38.254c-6.794,3.49-14.303,5.32-21.776,6.902c-40.039,8.473-81.265,10.621-122.135,8.485
				c-14.012-0.732-28.338-2.051-41.056-7.979c-12.718-5.927-23.693-17.352-25.449-31.273c-2.47-19.582,13.835-37.209,32.074-44.751
				c18.239-7.542,38.509-7.996,57.861-11.88c19.351-3.884,39.618-12.733,48.321-30.448c7.818-15.915,4.569-35.359,13.33-50.824
				C279.227,139.433,302.053,136.376,317.009,134.66z"/>
			<path style="fill:#ED967E;" d="M342.901,177.096c-11.258,3.329-19.197,12.626-24.102,22.935
				c-5.913,12.43-7.007,26.392-8.489,39.881c-0.823,7.497-1.734,15.05-3.752,22.337c-1.671,6.036-4.263,12.109-9.006,16.377
				c-5.369,4.831-12.947,5.827-19.772,7.116c-7.863,1.485-15.73,2.955-23.625,4.258c-17.822,2.942-35.838,4.904-53.925,4.299
				c-3.024-0.101-3.025,4.617,0,4.702c16.029,0.451,31.987-1.149,47.821-3.529c7.914-1.19,15.795-2.592,23.663-4.055
				c7.237-1.346,14.949-2.187,21.771-5.083c12.739-5.408,17.132-19.258,19.322-31.828c2.565-14.727,2.465-30.004,6.854-44.386
				c3.928-12.867,11.525-25.094,24.204-30.736C345.173,178.804,344.241,176.7,342.901,177.096z"/>
		</g>
	</g>
	<g>
		<g>
			<g>
				<g>
					<path style="fill:#AFAC39;" d="M98.817,330.798c-0.281,0.385-0.708,0.656-1.124,0.916c-2.571,1.624-5.141,3.247-7.712,4.871
						c-1.259,0.801-2.519,1.592-3.778,2.383c-1.311,0.833-2.643,1.676-4.069,2.331c-0.115,0.052-0.229,0.104-0.354,0.146
						c-0.302,0.135-0.604,0.26-0.916,0.385c-0.343,0.115-0.687,0.229-1.03,0.333c-0.395,0.114-0.78,0.208-1.176,0.281
						c-4.506,0.905-9.262-0.115-13.821-1.603c-1.051-0.344-2.092-0.708-3.101-1.072c-0.385-0.146-0.781-0.291-1.155-0.437
						c-0.354-0.125-0.697-0.26-1.051-0.395c-1.155-0.427-2.31-0.853-3.476-1.29c-0.677-0.25-1.363-0.51-2.05-0.76
						c-0.864-0.323-1.738-0.645-2.602-0.999c-0.739-0.302-1.457-0.624-2.154-0.978c-0.978-0.489-1.915-1.051-2.768-1.707
						c-2.175-1.686-3.788-4.194-3.559-6.785c0.26-2.831,2.675-5.203,5.516-6.379c0.905-0.385,1.863-0.656,2.831-0.853
						c0.676-0.146,1.363-0.239,2.05-0.312c0.885-0.094,1.79-0.156,2.695-0.177c0.52-0.01,1.051-0.021,1.572-0.021
						c0.52,0,1.03,0,1.551,0.01c1.124,0.01,2.248,0.042,3.372,0.063c0.853,0.01,1.696,0.021,2.55,0.021
						c1.499,0,2.997-0.042,4.496-0.156c0.26-0.021,0.51-0.042,0.77-0.063c0.447-0.042,0.895-0.094,1.342-0.156
						c0.323-0.042,0.645-0.083,0.968-0.146c0.437-0.063,0.874-0.146,1.301-0.24c1.155-0.239,2.279-0.562,3.382-0.968
						c0.166-0.062,0.333-0.125,0.489-0.208c1.582-0.728,2.799-1.956,4.277-2.622c3.549-1.571,8.315,0.947,10.709,3.289
						c2.81,2.747,4.35,6.338,5.838,9.845C99.109,328.466,99.567,329.799,98.817,330.798z"/>
					<path style="fill:#C0DCDD;" d="M59.531,338.936c-1.155-0.427-2.31-0.853-3.476-1.29c-1.155-6.14-0.853-12.572-0.042-18.951
						c0.52-0.01,1.051-0.021,1.572-0.021c0.52,0,1.03,0,1.551,0.01C58.23,325.521,57.907,332.421,59.531,338.936z"/>
					<path style="fill:#C0DCDD;" d="M81.781,341.444c-0.302,0.135-0.604,0.26-0.916,0.385c-0.343,0.115-0.687,0.229-1.03,0.333
						c-0.395,0.114-0.78,0.208-1.176,0.281c-2.269-3.247-4.184-6.723-5.693-10.459c-1.363-3.372-2.383-6.869-3.008-10.449
						c-0.052-0.323-0.24-1.519-0.406-2.924c0.26-0.021,0.51-0.042,0.77-0.063c0.447-0.042,0.895-0.094,1.342-0.156
						c0.323-0.042,0.645-0.083,0.968-0.146c0.042,0.552,0.104,1.093,0.187,1.634c0.427,2.758,1.103,5.495,1.988,8.128
						C76.452,332.869,78.804,337.344,81.781,341.444z"/>
				</g>
				<path style="fill:#516638;" d="M233.384,283.556c-20.457,5.364-42.024,3.522-63.188,3.917c-2.849,0.053-5.72,0.151-8.493,0.8
					c-5.319,1.246-10.544,3.711-14.386,7.547c-18.7,18.67-15.607,16.056-56.256,40.893c-2.873,1.755-13.608-19.393-13.383-20.446
					c0.2-0.935,43.608-36.983,47.614-40.359c4.346-3.662,11.177-7.962,15.134-12.031c7.284-7.489,18.423-12.469,26.452-19.176
					c12.717-10.623,26.097-21.583,42.329-25.305c3.736-0.857,7.65-1.307,11.404-0.527c2.757,0.573,5.327,1.787,7.865,2.994
					c7.592,3.612,15.464,7.499,20.493,14.17c3.475,4.61,5.223,10.143,6.199,15.743c0.696,3.996,2.771,9.816,2.385,13.841
					C256.601,275.54,241.523,281.422,233.384,283.556z"/>
			</g>
			<g>
				<path style="fill:#AFAC39;" d="M160.38,375.06c-0.582,2.257-1.216,4.506-1.903,6.743c-0.289,0.952-0.59,1.903-0.903,2.851
					c-1.513,4.624-3.237,9.191-5.173,13.681c-0.02,0.049-0.041,0.094-0.061,0.142c-0.338,0.777-0.683,1.558-1.102,2.302
					c-0.533,0.948-1.179,1.83-2.042,2.538c-2.631,2.159-6.556,2.147-10.049,1.79c-4.595-0.476-9.947-1.968-11.326-6.044
					c-0.789-2.338,0.016-4.852,0.903-7.174c0.024-0.065,0.053-0.134,0.077-0.199c0.26-0.671,0.521-1.338,0.785-2.005
					c1.46-3.681,3.022-7.32,4.681-10.928c0.382-0.83,0.769-1.659,1.159-2.485c1.102-2.31,2.245-4.608,3.424-6.885
					c3.209-6.186,6.507-13.128,15.519-9.663c3.595,1.383,6.283,4.604,6.816,8.166C161.543,370.285,160.986,372.709,160.38,375.06z"
					/>
				<path style="fill:#587040;" d="M197.531,205.255c-8.302-0.508-16.984,2.221-22.685,8.194c-5.179,5.426-7.483,12.86-9.527,20.034
					c-12.236,42.929-21.009,86.817-26.21,131.113c-0.103,0.879-0.196,1.813,0.193,2.611c0.549,1.127,1.872,1.632,3.083,2.002
					c5.369,1.641,10.944,2.623,16.557,2.917c0.746,0.039,1.548,0.052,2.172-0.353c0.647-0.419,0.95-1.186,1.215-1.903
					c14.503-39.31,29.048-78.757,38.215-119.6c0.314-1.398,0.665-2.879,1.692-3.892c0.875-0.864,2.11-1.251,3.294-1.609
					c6.799-2.053,13.642-6.667,20.359-8.938c0.911-0.308-10.806-18.563-12.014-20.104
					C209.749,210.469,204.53,205.683,197.531,205.255z"/>
			</g>
		</g>
		<g>
			<g>
				<path style="fill:#F9C8BB;" d="M286.398,110.692c0.533,0.666,1.152,1.383,1.998,1.492c1.156,0.149,2.154-0.986,2.301-2.142
					c0.147-1.156-0.314-2.292-0.766-3.366c2.553,1.934,5.373,3.515,8.355,4.683c2.193,0.859,4.853,1.44,6.764,0.063
					c1.331-0.959,1.927-2.625,2.351-4.21c0.829-3.102,1.285-6.304,1.354-9.515c0.014-0.646,0.01-1.308-0.212-1.915
					c-0.276-0.755-0.862-1.352-1.467-1.881c-1.742-1.523-3.787-2.698-5.981-3.435c-1.992-0.669-4.084-0.976-6.164-1.27
					c-3.827-0.542-7.658-1.053-11.493-1.533c-0.517-0.065-3.646,11.858-3.809,13.022c-0.263,1.876,1.116,2.945,2.253,4.366
					C283.388,106.931,284.893,108.812,286.398,110.692z"/>
				<path style="fill:#C0DCDD;" d="M382.666,140.557c-1.253,2.566-3.168,4.738-5.063,6.869
					c-16.381,18.447-31.669,39.766-54.093,50.047c-1.818,0.83-3.181,2.395-4.498,3.896c-10.838,12.339-22.917,16.824-36.825,25.552
					c-1.509,0.948-3.054,1.875-4.266,3.168c-1.175,1.253-1.989,2.79-2.818,4.291c-4.494,8.101-14.637,29.208-17.658,31.006
					c-8.101-3.705-16.625-11.163-22.506-17.853c-5.885-6.69-10.285-14.523-15.133-21.998c-4.848-7.475-10.375-14.718-17.772-19.684
					c7.15-4.014,9.907-5.677,15.165-11.965c1.452-1.732,2.827-3.558,3.803-5.6c1.171-2.456,1.729-5.153,2.347-7.804
					c2.216-9.533,7.369-15.759,15.344-21.432c-3.693-10.358-7.508-21.282-9.268-32.136c-1.623-9.992-4.465-19.984-6.084-29.981
					c-0.452-2.761-0.899-5.563-0.586-8.345c0.317-2.782,1.501-5.584,3.754-7.247c2.184-1.615,5.035-1.952,7.747-2.111
					c5.1-0.301,10.224-0.171,15.304,0.395c4.612,0.512,9.179,1.379,13.734,2.286c7.784,1.545,15.544,3.209,23.279,4.982
					c-1.607,7.125-3.217,14.246-4.823,21.371c-8.422-1.781-16.857-3.563-25.406-4.571c-2.513-0.297-5.218-0.574-7.459-0.216
					c6.649,14.567,14.665,29.09,23.901,42.348c1.716,2.46,3.473,4.88,5.275,7.247c2.123,2.794,5.389,5.466,8.748,6.487
					c1.68,0.512,3.481,0.317,5.23,0.118c6.67-0.76,13.36-1.529,19.968-2.696c3.969-0.699,7.902-1.541,11.786-2.615
					c10.358-2.867,20.411-7.463,28.354-14.697c-8.858-2.16-17.719-4.319-26.577-6.479c2.668-7.15,5.897-14.096,9.647-20.745
					c13.38,2.623,26.475,6.706,38.977,12.156c3.79,1.647,7.87,3.786,9.289,7.666C384.46,134.948,383.923,137.994,382.666,140.557z"
					/>
			</g>
			<g>
				<path style="fill:#FAD6CA;" d="M312.005,156.979c-3.965,3.538-8.333,6.661-12.762,9.618
					c-9.838,6.572-21.001,12.664-32.791,11.652c0.24-11.066,2.391-22.083,6.332-32.425c1.716,2.46,3.473,4.88,5.275,7.247
					c2.123,2.794,5.389,5.466,8.748,6.487c1.68,0.512,3.481,0.317,5.23,0.118C298.706,158.914,305.396,158.146,312.005,156.979z"/>
				<g>
					<g>
						<path style="fill:#FAD6CA;" d="M309.723,134.554c-1.33,2.31-2.741,4.571-4.209,6.792
							c-4.864,7.353-10.383,14.279-15.914,21.156c-0.24,0.297-0.492,0.606-0.83,0.785c-0.679,0.362-1.509,0.122-2.241-0.122
							c-1.391-0.468-2.786-0.935-4.177-1.403c-3.542-1.188-7.442-2.684-9.057-6.051c-0.11-0.228-0.207-0.472-0.195-0.72
							c0.012-0.305,0.183-0.578,0.346-0.83c2.456-3.851,4.9-7.715,7.329-11.587c1.139-1.814,2.269-3.632,3.396-5.454
							c1.017-1.639,2.029-3.278,3.042-4.917c1.151-1.871,3.058-7.08,5.555-7.3c2.773-0.244,6.885,2.245,9.199,3.571
							C302.765,128.933,310.191,133.74,309.723,134.554z"/>
						<path style="fill:#F9C8BB;" d="M309.723,134.554c-1.33,2.31-2.741,4.571-4.209,6.792c-4.693,0.724-9.529,0.504-14.132-0.655
							c-2.493-0.626-4.986-1.562-6.901-3.278c-0.106-0.094-0.208-0.191-0.309-0.293c1.017-1.639,2.029-3.278,3.042-4.917
							c1.151-1.871,3.058-7.08,5.555-7.3c2.773-0.244,6.885,2.245,9.199,3.571C302.765,128.933,310.191,133.74,309.723,134.554z"/>
					</g>
					<path style="fill:#283813;" d="M294.483,91.542c-1.843-0.498-2.928-2.384-3.107-4.189c-0.346-3.484,1.871-6.723,4.324-9.343
						c3.965-4.235,8.957-7.787,14.73-9.264c5.774-1.476,12.38-0.639,16.967,2.992c0.346,0.274,0.687,0.567,1.099,0.741
						c0.324,0.137,0.679,0.195,1.026,0.265c5.965,1.19,10.451,5.873,13.637,10.789c3.824,5.903,6.448,12.748,5.905,19.652
						c-0.516,6.567-3.807,12.612-7.034,18.449c-1.262,2.284-2.695,4.406-4.15,6.585c-1.463,2.19-2.932,4.393-3.992,6.782
						c-3.144,7.083-2.433,15.084-3.335,22.719c-0.144,1.219-0.353,2.488-1.115,3.481c1.048,1.906,0.66,4.137,0.435,6.275
						c-0.483,4.592-1.147,9.318-3.616,13.297c-4.246,6.841-13.619,10.137-21.788,8.345c-2.559,4.161-7.188,7.036-12.179,7.979
						c-4.99,0.943-10.278,0.036-14.806-2.161c-4.096-1.987-7.904-5.617-7.723-9.968c-2.04-0.793-3.84-2.128-5.142-3.812
						c-3.098-4.008-3.075-9.644-0.981-14.197c2.094-4.553,5.97-8.167,10.143-11.178c2.892-2.086,6.525-2.979,9.834-4.409
						c3.808-1.646,7.623-3.295,11.234-5.299c7.56-4.197,14.152-9.944,19.19-16.729c5.872-7.909,11.544-16.12,12.01-25.774
						c0.131-2.716-0.181-5.485-1.254-8.007c-1.6-3.763-4.925-6.835-8.938-8.264c-4.013-1.429-8.652-1.196-12.483,0.625
						C300.587,89.25,297.482,92.352,294.483,91.542z"/>
					<g>
						<path style="fill:#FAD6CA;" d="M334.675,120.172c1.163,0.451,2.295,1.179,2.835,2.303c0.386,0.805,0.43,1.726,0.456,2.618
							c0.034,1.197,0.043,2.424-0.353,3.555c-0.552,1.576-1.856,2.808-3.346,3.561c-1.49,0.753-3.161,1.074-4.82,1.26
							c-2.808,0.315-5.657,0.269-8.453-0.139c-0.679-0.099-1.413-0.25-1.86-0.771c-0.408-0.475-0.48-1.148-0.474-1.774
							C318.737,123.53,328.001,117.585,334.675,120.172z"/>
						<g>
							<path style="fill:#FAD6CA;" d="M307.109,78.959c-5.861,1.679-9.964,6.993-12.59,12.495
								c-2.202,4.613-3.655,9.546-5.937,14.123c-2.261,4.534-6.367,8.141-6.391,13.508c-0.013,2.87,0.873,5.683,2.12,8.269
								c4.068,8.434,11.384,10.256,20.104,10.157c3.526-0.04,7.116-0.081,10.561-0.92c3.791-0.923,5.746-2.874,7.945-6.02
								c3.94-5.638,7.761-11.455,10.1-17.923c2.339-6.468,3.1-13.718,0.858-20.22C330.256,81.924,317.804,75.896,307.109,78.959z"/>
							<g>
								<path style="fill:#F9C8BB;" d="M306.035,105.064c-0.986,0.425-1.684,1.314-2.308,2.188
									c-1.507,2.111-2.859,4.388-3.484,6.905c-0.188,0.757-0.274,1.657,0.26,2.225c0.496,0.529,1.369,0.539,2.018,0.216
									c0.649-0.324,1.123-0.908,1.562-1.485c1.6-2.102,3.021-4.339,4.244-6.68C309.317,106.539,308.796,103.875,306.035,105.064z"
									/>
								<path style="fill:#F9C8BB;" d="M295.308,108.178c1.403,1.106,2.006,3.164,1.321,4.814c-0.706,1.702-2.602,2.716-4.444,2.736
									c-0.898,0.01-1.812-0.191-2.57-0.671c-1.267-0.801-1.981-2.395-1.735-3.873
									C288.434,107.849,292.638,106.073,295.308,108.178z"/>
								<path style="fill:#F9C8BB;" d="M317.269,119.565c1.403,1.106,2.006,3.164,1.321,4.814c-0.706,1.702-2.601,2.716-4.444,2.736
									c-0.898,0.01-1.811-0.191-2.57-0.671c-1.267-0.801-1.981-2.395-1.735-3.873C310.395,119.236,314.599,117.46,317.269,119.565
									z"/>
								<path style="fill:#FFFFFF;" d="M304.694,123.785c-3.213,0.864-9.052,1.41-10.494-5.384c-0.19-0.893,0.693-1.643,1.547-1.323
									c2.22,0.833,6.073,2.44,9.284,4.615C305.858,122.252,305.658,123.526,304.694,123.785z"/>
								<path style="fill:#283813;" d="M299.559,101.791c-0.666-1.01-2.521-1.802-3.541-0.893c-0.141,0.126-0.05,0.334,0.103,0.39
									c0.478,0.175,0.965,0.173,1.426,0.254c-1.211,0.396-2.07,1.762-1.742,3.023c0.018,0.105,0.04,0.209,0.074,0.311
									c0.267,0.822,1.138,1.266,1.965,1.036C299.464,105.463,300.522,103.251,299.559,101.791z"/>
								<path style="fill:#283813;" d="M319.394,112.61c0.031-0.813-0.736-1.641-1.376-2.039c-0.543-0.339-2.334-1.037-2.715-0.18
									c-0.025,0.056-0.021,0.108,0.02,0.154c0.158,0.18,0.272,0.173,0.503,0.199c0.33,0.037,0.655,0.085,0.97,0.181
									c-0.612,0.254-1.163,0.567-1.518,1.172c-0.504,0.858-0.36,2.02,0.352,2.721c0.82,0.807,2.193,0.815,2.995-0.033
									c0.522-0.551,0.818-1.348,0.778-2.109C319.402,112.654,319.396,112.633,319.394,112.61z"/>
								<path style="fill:#283813;" d="M304.012,98.746c-1.199-2.267-3.933-3.763-6.493-3.521c-0.961,0.091-1.252,1.45-0.236,1.746
									c2.009,0.585,3.951,0.796,5.248,2.641C303.16,100.506,304.536,99.735,304.012,98.746z"/>
								<path style="fill:#283813;" d="M323.533,109.32c-1.199-2.267-3.933-3.763-6.493-3.521c-0.961,0.091-1.252,1.45-0.236,1.746
									c2.009,0.585,3.951,0.795,5.248,2.641C322.681,111.08,324.057,110.309,323.533,109.32z"/>
							</g>
							<path style="fill:#283813;" d="M302.361,91.649c-0.76,0.748-0.402,2.142,0.454,2.779s1.998,0.708,3.064,0.682
								c4.353-0.103,8.713-1.44,12.202-4.044c-0.323,3.674-0.639,7.443,0.351,10.996c0.175,0.629,0.405,1.27,0.871,1.727
								c0.964,0.945,2.64,0.741,3.711-0.08c1.072-0.821,1.685-2.09,2.262-3.311c-0.264,2.81-0.405,5.749,0.689,8.351
								c1.095,2.602,3.779,4.745,6.568,4.313c1.944-0.302,3.532-1.76,4.59-3.418c2.809-4.401,2.527-10.066,1.619-15.208
								c-0.677-3.831-1.692-7.711-3.962-10.871c-1.741-2.423-4.144-4.307-6.716-5.819c-6.273-3.688-13.948-5.287-20.989-3.449
								c-4.973,1.298-9.502,4.428-12.365,8.71c-1.513,2.263-5.371,8.565-1.47,10.408C295.942,94.69,300.074,93.157,302.361,91.649z"
								/>
						</g>
					</g>
				</g>
			</g>
		</g>
	</g>
	<path style="fill:#C0DCDD;" d="M152.401,398.334c-0.02,0.049-0.041,0.094-0.061,0.142c-0.338,0.777-0.683,1.558-1.102,2.302
		c-0.748-0.118-1.484-0.272-2.188-0.427c-3.03-0.667-6.007-1.619-8.898-2.745c-2.753-1.078-5.47-2.302-8.052-3.754
		c-1.09-0.614-2.253-1.253-3.375-1.964c0.024-0.065,0.053-0.134,0.077-0.199c0.26-0.671,0.521-1.338,0.785-2.005
		c0.818,0.492,1.631,0.984,2.46,1.431c2.631,1.407,5.332,2.708,8.113,3.79c2.66,1.033,5.385,1.919,8.15,2.623
		C149.656,397.875,151.018,398.18,152.401,398.334z"/>
	<path style="fill:#C0DCDD;" d="M158.477,381.802c-0.289,0.952-0.59,1.903-0.903,2.851c-0.757-0.004-1.505-0.037-2.225-0.061
		c-2.867-0.114-5.738-0.488-8.54-1.098c-2.806-0.614-5.535-1.521-8.174-2.643c-1.387-0.594-2.957-1.249-4.368-2.094
		c0.382-0.83,0.769-1.659,1.159-2.485c1.436,0.708,2.843,1.545,4.246,2.123c2.542,1.045,5.189,1.846,7.869,2.436
		c2.794,0.614,5.637,0.956,8.496,1.029C156.846,381.88,157.663,381.851,158.477,381.802z"/>
	<g>
		<g>
			<g>
				<path style="fill:#283813;" d="M379.911,262.628c-2.922-3.744-5.915-7.628-7.117-12.223c-0.546-2.09-0.621-4.544,0.801-6.17
					c2.137-2.443,6.062-1.581,9.129-0.516c-3.585-2.928-7.196-5.881-10.136-9.456c-2.94-3.575-5.201-7.856-5.643-12.464
					c-0.116-1.208-0.093-2.485,0.475-3.557c0.781-1.474,2.475-2.283,4.136-2.44c1.661-0.157,3.319,0.234,4.941,0.622
					c-5.987-4.072-10.123-10.762-11.091-17.937c-0.24-1.775-0.214-3.799,1.041-5.077c1.859-1.894,5.024-0.981,7.468,0.055
					c-4.707-7.117-7.261-15.639-7.244-24.172c0.005-2.597,0.257-5.249,1.319-7.618c1.063-2.369,3.046-4.434,5.564-5.069
					c4.307-1.087,8.499,2.162,11.216,5.677c5.493,7.108,8.17,15.933,10.737,24.542c-0.115-1.913,1.794-3.547,3.71-3.541
					s3.648,1.323,4.613,2.978c0.965,1.655,1.281,3.605,1.436,5.515c0.496,6.12-0.485,12.253-1.463,18.315
					c0.705-2.484,4.586-2.606,6.32-0.693c1.734,1.913,1.843,4.764,1.692,7.342c-0.387,6.616-1.891,13.226-4.957,19.102
					c2.383-0.928,5.205-1.822,7.362-0.448c2.266,1.444,2.554,4.603,2.4,7.286c-0.531,9.243-3.495,18.336-8.513,26.117
					c-2.913,4.517-8.479,10.41-14.209,7.426C388.091,273.199,383.856,267.681,379.911,262.628z"/>
				<path style="fill:#516638;" d="M409.927,241.452c-0.085-0.362-0.516-0.562-0.791-0.241c-1.111,1.3-1.443,3.437-2.112,5.013
					c-0.762,1.792-1.679,3.515-2.7,5.172c-1.895,3.077-4.271,5.815-7.011,8.159c-0.131-1.682-0.268-3.363-0.419-5.044
					c-0.559-6.25-1.258-12.491-2.112-18.711c0.021-0.018,0.045-0.031,0.066-0.052c2.862-2.74,5.372-5.838,7.374-9.263
					c0.971-1.661,1.848-3.413,2.541-5.209c0.573-1.484,1.33-3.246,0.933-4.838c-0.046-0.185-0.337-0.267-0.476-0.142
					c-1.102,0.996-1.53,2.544-2.136,3.87c-0.807,1.765-1.653,3.492-2.651,5.159c-1.706,2.853-3.721,5.473-6.02,7.857
					c-0.982-6.784-2.159-13.538-3.56-20.246c0.034-0.036,0.069-0.07,0.101-0.113c2.372-3.269,4.319-6.846,5.599-10.684
					c0.586-1.757,1.062-3.55,1.404-5.371c0.326-1.737,0.848-3.903,0.272-5.624c-0.161-0.481-0.848-0.461-1.054-0.035
					c-0.681,1.406-0.659,3.192-0.948,4.725c-0.369,1.963-0.887,3.896-1.563,5.775c-1.11,3.083-2.557,5.996-4.365,8.714
					c-0.71-3.255-1.472-6.499-2.293-9.73c-2.569-10.104-5.677-20.099-9.691-29.726c-0.385-0.923-1.789-0.39-1.453,0.557
					c4.554,12.878,8.389,25.931,11.329,39.226c-2.842-1.439-5.583-3.038-8.179-4.901c-1.423-1.021-2.793-2.112-4.145-3.224
					c-1.263-1.04-2.471-2.566-4.021-3.134c-0.583-0.214-1.205,0.293-0.98,0.918c0.555,1.538,2.122,2.694,3.301,3.767
					c1.457,1.327,3.008,2.544,4.609,3.692c3.103,2.224,6.411,4.186,9.878,5.787c0.059,0.027,0.117,0.043,0.174,0.061
					c0.77,3.659,1.475,7.336,2.105,11.034c0.457,2.684,0.877,5.374,1.27,8.068c-3.168-0.957-6.19-2.027-9.059-3.75
					c-3.088-1.854-5.531-4.307-8.312-6.546c-0.629-0.507-1.364,0.279-0.983,0.923c1.843,3.115,5.077,5.585,8.121,7.448
					c3.185,1.949,6.851,3.592,10.56,4.201c1.167,8.364,2.04,16.767,2.681,25.189c-2.75-1.288-5.373-2.747-7.855-4.558
					c-1.433-1.045-2.79-2.185-4.105-3.374c-1.115-1.008-2.106-2.398-3.584-2.823c-0.28-0.081-0.554,0.219-0.522,0.484
					c0.188,1.529,1.529,2.669,2.553,3.736c1.373,1.43,2.881,2.728,4.461,3.924c2.81,2.127,5.957,3.957,9.247,5.261
					c0.368,5.237,0.652,10.479,0.858,15.723c0.199,5.065,0.328,10.133,0.4,15.201c0.074,5.246-0.338,10.669,0.261,15.881
					c0.11,0.956,1.607,1.073,1.736,0.065c0.573-4.469,0.247-9.126,0.197-13.624c-0.051-4.585-0.148-9.169-0.3-13.751
					c-0.215-6.511-0.543-13.019-1.004-19.518c0.225-0.265,0.339-0.614,0.289-0.943c3.118-2.563,5.814-5.569,7.959-8.996
					c1.163-1.859,2.13-3.822,2.908-5.872C409.32,245.399,410.328,243.163,409.927,241.452z"/>
			</g>
			<g>
				<path style="fill:#587040;" d="M430.93,273.449c3.407-3.309,6.904-6.746,8.723-11.133c0.828-1.996,1.237-4.416,0.051-6.221
					c-1.783-2.713-5.788-2.396-8.972-1.761c3.952-2.41,7.933-4.841,11.335-7.979c3.402-3.138,6.228-7.07,7.297-11.574
					c0.28-1.181,0.432-2.448,0.016-3.588c-0.572-1.567-2.139-2.6-3.762-2.983c-1.624-0.383-3.32-0.223-4.98-0.06
					c6.488-3.214,11.501-9.274,13.443-16.25c0.48-1.725,0.732-3.734-0.336-5.172c-1.583-2.13-4.842-1.659-7.405-0.968
					c5.637-6.406,9.334-14.497,10.485-22.952c0.35-2.573,0.464-5.234-0.264-7.727c-0.728-2.492-2.41-4.809-4.817-5.783
					c-4.118-1.666-8.715,0.978-11.887,4.088c-6.415,6.289-10.274,14.665-13.996,22.841c0.375-1.879-1.292-3.759-3.19-4.016
					c-1.899-0.257-3.795,0.811-4.977,2.319c-1.182,1.508-1.762,3.396-2.177,5.267c-1.329,5.995-1.197,12.204-1.058,18.343
					c-0.359-2.557-4.186-3.209-6.165-1.551c-1.979,1.658-2.478,4.467-2.681,7.041c-0.522,6.607,0.062,13.361,2.295,19.601
					c-2.233-1.245-4.906-2.518-7.231-1.452c-2.443,1.12-3.16,4.21-3.375,6.889c-0.739,9.229,0.952,18.642,4.857,27.036
					c2.267,4.873,6.974,11.473,13.058,9.301C421.381,282.801,426.331,277.915,430.93,273.449z"/>
				<path style="fill:#516638;" d="M404.097,248.363c0.134-0.347,0.588-0.486,0.816-0.13c0.923,1.44,0.959,3.603,1.406,5.255
					c0.509,1.88,1.182,3.712,1.967,5.493c1.456,3.308,3.435,6.345,5.828,9.042c0.36-1.648,0.726-3.295,1.105-4.939
					c1.409-6.114,2.956-12.201,4.654-18.245c-0.019-0.021-0.04-0.037-0.058-0.06c-2.46-3.106-4.522-6.519-6.036-10.185
					c-0.734-1.778-1.364-3.634-1.804-5.507c-0.364-1.548-0.873-3.397-0.262-4.92c0.071-0.177,0.37-0.219,0.491-0.075
					c0.955,1.138,1.167,2.729,1.586,4.126c0.558,1.859,1.16,3.685,1.919,5.474c1.299,3.06,2.936,5.931,4.888,8.607
					c1.902-6.585,3.992-13.115,6.298-19.568c-0.029-0.04-0.059-0.078-0.084-0.126c-1.902-3.563-3.341-7.373-4.083-11.35
					c-0.34-1.821-0.566-3.662-0.655-5.512c-0.086-1.765-0.305-3.982,0.501-5.608c0.225-0.454,0.903-0.341,1.049,0.11
					c0.482,1.486,0.216,3.253,0.292,4.81c0.097,1.995,0.345,3.981,0.758,5.935c0.677,3.206,1.712,6.29,3.131,9.23
					c1.148-3.128,2.348-6.237,3.604-9.324c3.928-9.657,8.375-19.132,13.669-28.12c0.508-0.862,1.825-0.142,1.364,0.751
					c-6.275,12.133-11.86,24.538-16.593,37.306c3.012-1.036,5.946-2.245,8.772-3.735c1.549-0.816,3.056-1.709,4.547-2.626
					c1.393-0.857,2.799-2.203,4.412-2.554c0.606-0.132,1.154,0.455,0.845,1.043c-0.76,1.447-2.471,2.378-3.785,3.279
					c-1.625,1.115-3.328,2.109-5.071,3.027c-3.379,1.779-6.924,3.269-10.578,4.38c-0.062,0.019-0.121,0.027-0.181,0.036
					c-1.264,3.519-2.466,7.065-3.595,10.642c-0.82,2.597-1.605,5.203-2.363,7.818c3.269-0.514,6.409-1.161,9.487-2.474
					c3.313-1.414,6.069-3.51,9.13-5.346c0.693-0.416,1.313,0.463,0.847,1.049c-2.252,2.834-5.794,4.837-9.065,6.266
					c-3.422,1.495-7.278,2.621-11.036,2.716c-2.301,8.125-4.317,16.33-6.105,24.585c2.901-0.9,5.698-1.986,8.405-3.439
					c1.562-0.839,3.063-1.783,4.529-2.78c1.242-0.846,2.414-2.087,3.937-2.306c0.288-0.041,0.519,0.293,0.45,0.551
					c-0.396,1.489-1.88,2.435-3.041,3.351c-1.556,1.229-3.227,2.308-4.956,3.277c-3.075,1.722-6.443,3.104-9.88,3.946
					c-1.082,5.137-2.08,10.292-3.002,15.458c-0.891,4.99-1.712,9.992-2.477,15.003c-0.791,5.187-1.126,10.615-2.432,15.696
					c-0.24,0.932-1.739,0.842-1.729-0.173c0.044-4.505,1.005-9.074,1.67-13.523c0.678-4.535,1.402-9.062,2.179-13.581
					c1.105-6.42,2.32-12.822,3.666-19.197c-0.186-0.293-0.251-0.655-0.157-0.974c-2.738-2.965-4.997-6.312-6.652-10.001
					c-0.897-2-1.586-4.078-2.077-6.215C404.157,252.357,403.465,250.003,404.097,248.363z"/>
			</g>
			<path style="fill:#F7B509;" d="M428.74,288.684c0,0-0.171,4.478-0.565,11.883c-0.069,1.306-0.146,2.7-0.232,4.181
				c-0.391,6.946-0.948,15.71-1.692,25.418c-0.11,1.407-0.224,2.835-0.338,4.282c-0.606,7.503-1.322,15.47-2.164,23.519
				c-0.15,1.431-0.305,2.867-0.463,4.303c-0.98,8.89-2.111,17.805-3.42,26.227c-0.224,1.46-0.456,2.908-0.692,4.335
				c-1.139,6.865-2.399,13.331-3.79,19.106c0,0-13.355,4.958-29.001,0c0,0-1.167-8.378-2.648-21.282
				c-0.146-1.289-0.297-2.627-0.451-4.006c-0.797-7.146-1.655-15.405-2.452-24.238c-0.122-1.354-0.244-2.721-0.366-4.099
				c-0.683-7.939-1.314-16.255-1.798-24.588c-0.081-1.366-0.159-2.733-0.228-4.099c-0.423-8.012-0.7-15.975-0.761-23.567
				c-0.008-1.122-0.012-2.237-0.012-3.339c0.004-4.893,0.106-9.598,0.321-14.035c0,0,7.877-0.63,18.561-0.895
				c0.708-0.02,1.428-0.037,2.16-0.053c3.636-0.069,7.536-0.094,11.526-0.037c0.724,0.008,1.456,0.02,2.184,0.041
				C417.914,287.858,423.506,288.143,428.74,288.684z"/>
		</g>
		<path style="fill:#FAD6CA;" d="M428.174,300.567c-0.069,1.306-0.146,2.7-0.232,4.181c-2.314,0.333-4.64,0.622-6.962,0.866
			c-3.827,0.403-7.666,0.675-11.505,0.846c-0.765,0.037-1.533,0.069-2.298,0.094c-1.618,0.057-3.237,0.094-4.86,0.118
			c-1.131,0.016-2.261,0.024-3.396,0.032c-0.744,0.004-1.489,0.008-2.233,0.004c-6.336-0.008-12.689-0.191-19.009-0.651
			c-0.008-1.122-0.012-2.237-0.012-3.339c6.304,0,12.619,0.142,18.927,0.098c0.797-0.004,1.598-0.016,2.395-0.029
			c0.98-0.012,1.956-0.033,2.936-0.061c1.96-0.053,3.921-0.126,5.881-0.224c0.736-0.033,1.472-0.069,2.208-0.114
			c3.404-0.191,6.8-0.455,10.187-0.805C422.867,301.307,425.527,300.974,428.174,300.567z"/>
		<path style="fill:#FAD6CA;" d="M426.251,330.166c-0.11,1.407-0.224,2.835-0.338,4.282c-1.643,0.183-3.29,0.342-4.941,0.472
			c-6.47,0.517-12.965,0.638-19.452,0.476c-6.507-0.163-13.034-0.557-19.505-1.281c-1.118-0.126-2.233-0.256-3.347-0.391
			c-0.081-1.366-0.159-2.733-0.228-4.099c1.322,0.13,2.643,0.248,3.965,0.362c6.234,0.525,12.465,1.013,18.724,1.175
			c6.356,0.163,12.725,0.053,19.069-0.427C422.22,330.581,424.238,330.397,426.251,330.166z"/>
		<path style="fill:#FAD6CA;" d="M423.749,357.967c-0.15,1.431-0.305,2.867-0.463,4.303c-1.086,0.138-2.172,0.264-3.258,0.378
			c-6.426,0.683-12.896,1.041-19.358,0.996c-6.466-0.045-12.928-0.435-19.354-1.175c-0.163-0.02-0.321-0.037-0.484-0.057
			c-0.122-1.354-0.244-2.721-0.366-4.099c0.541,0.061,1.082,0.114,1.623,0.171c6.174,0.626,12.375,0.935,18.581,0.919
			c6.206-0.012,12.408-0.293,18.586-0.919C420.756,358.333,422.253,358.162,423.749,357.967z"/>
		<path style="fill:#FAD6CA;" d="M419.866,388.497c-0.224,1.46-0.456,2.908-0.692,4.335c-0.215,0.008-0.427,0.016-0.642,0.02
			c-5.47,0.15-10.952,0.012-16.414-0.297c-5.56-0.317-11.119-0.805-16.626-1.631c-0.586-0.089-1.171-0.175-1.757-0.268
			c-0.146-1.289-0.297-2.627-0.451-4.006c1.041,0.13,2.086,0.26,3.132,0.37c5.226,0.553,10.452,1.065,15.702,1.33
			c5.336,0.272,10.692,0.374,16.035,0.212C418.723,388.545,419.296,388.525,419.866,388.497z"/>
	</g>
</g>
</svg>
